<?xml version="1.0" encoding="UTF-8" standalone="no"?>
<!DOCTYPE svg PUBLIC "-//W3C//DTD SVG 1.1//EN"
 "http://www.w3.org/Graphics/SVG/1.1/DTD/svg11.dtd">
<!-- Generated by graphviz version 2.43.0 (0)
 -->
<!-- Title: %3 Pages: 1 -->
<svg width="1854pt" height="692pt"
 viewBox="0.00 0.00 1854.00 692.00" xmlns="http://www.w3.org/2000/svg" xmlns:xlink="http://www.w3.org/1999/xlink">
<g id="graph0" class="graph" transform="scale(1 1) rotate(0) translate(4 688)">
<title>%3</title>
<polygon fill="white" stroke="transparent" points="-4,4 -4,-688 1850,-688 1850,4 -4,4"/>
<!-- [root] azurerm_availability_set.main (expand) -->
<g id="node1" class="node">
<title>[root] azurerm_availability_set.main (expand)</title>
<polygon fill="none" stroke="black" points="1322,-252 1092,-252 1092,-216 1322,-216 1322,-252"/>
<text text-anchor="middle" x="1207" y="-230.3" font-family="Times,serif" font-size="14.00">azurerm_availability_set.main</text>
</g>
<!-- [root] azurerm_resource_group.main (expand) -->
<g id="node14" class="node">
<title>[root] azurerm_resource_group.main (expand)</title>
<polygon fill="none" stroke="black" points="1092,-108 858,-108 858,-72 1092,-72 1092,-108"/>
<text text-anchor="middle" x="975" y="-86.3" font-family="Times,serif" font-size="14.00">azurerm_resource_group.main</text>
</g>
<!-- [root] azurerm_availability_set.main (expand)&#45;&gt;[root] azurerm_resource_group.main (expand) -->
<g id="edge1" class="edge">
<title>[root] azurerm_availability_set.main (expand)&#45;&gt;[root] azurerm_resource_group.main (expand)</title>
<path fill="none" stroke="black" d="M1202.66,-215.96C1196.66,-195.83 1183.89,-162.72 1161,-144 1143.15,-129.4 1121.49,-118.81 1099.34,-111.15"/>
<polygon fill="black" stroke="black" points="1100.43,-107.82 1089.83,-108.04 1098.25,-114.47 1100.43,-107.82"/>
</g>
<!-- [root] azurerm_lb.main (expand) -->
<g id="node2" class="node">
<title>[root] azurerm_lb.main (expand)</title>
<polygon fill="none" stroke="black" points="1140.5,-396 1003.5,-396 1003.5,-360 1140.5,-360 1140.5,-396"/>
<text text-anchor="middle" x="1072" y="-374.3" font-family="Times,serif" font-size="14.00">azurerm_lb.main</text>
</g>
<!-- [root] azurerm_public_ip.lb_public_ip (expand) -->
<g id="node13" class="node">
<title>[root] azurerm_public_ip.lb_public_ip (expand)</title>
<polygon fill="none" stroke="black" points="1152,-180 916,-180 916,-144 1152,-144 1152,-180"/>
<text text-anchor="middle" x="1034" y="-158.3" font-family="Times,serif" font-size="14.00">azurerm_public_ip.lb_public_ip</text>
</g>
<!-- [root] azurerm_lb.main (expand)&#45;&gt;[root] azurerm_public_ip.lb_public_ip (expand) -->
<g id="edge2" class="edge">
<title>[root] azurerm_lb.main (expand)&#45;&gt;[root] azurerm_public_ip.lb_public_ip (expand)</title>
<path fill="none" stroke="black" d="M1068.95,-359.85C1062.37,-322.75 1046.75,-234.81 1038.81,-190.1"/>
<polygon fill="black" stroke="black" points="1042.25,-189.47 1037.06,-180.23 1035.36,-190.69 1042.25,-189.47"/>
</g>
<!-- [root] azurerm_lb_backend_address_pool.main (expand) -->
<g id="node3" class="node">
<title>[root] azurerm_lb_backend_address_pool.main (expand)</title>
<polygon fill="none" stroke="black" points="1225,-468 923,-468 923,-432 1225,-432 1225,-468"/>
<text text-anchor="middle" x="1074" y="-446.3" font-family="Times,serif" font-size="14.00">azurerm_lb_backend_address_pool.main</text>
</g>
<!-- [root] azurerm_lb_backend_address_pool.main (expand)&#45;&gt;[root] azurerm_lb.main (expand) -->
<g id="edge3" class="edge">
<title>[root] azurerm_lb_backend_address_pool.main (expand)&#45;&gt;[root] azurerm_lb.main (expand)</title>
<path fill="none" stroke="black" d="M1073.51,-431.7C1073.29,-423.98 1073.02,-414.71 1072.77,-406.11"/>
<polygon fill="black" stroke="black" points="1076.27,-406 1072.49,-396.1 1069.28,-406.2 1076.27,-406"/>
</g>
<!-- [root] azurerm_lb_outbound_rule.main (expand) -->
<g id="node4" class="node">
<title>[root] azurerm_lb_outbound_rule.main (expand)</title>
<polygon fill="none" stroke="black" points="1238,-540 992,-540 992,-504 1238,-504 1238,-540"/>
<text text-anchor="middle" x="1115" y="-518.3" font-family="Times,serif" font-size="14.00">azurerm_lb_outbound_rule.main</text>
</g>
<!-- [root] azurerm_lb_outbound_rule.main (expand)&#45;&gt;[root] azurerm_lb_backend_address_pool.main (expand) -->
<g id="edge4" class="edge">
<title>[root] azurerm_lb_outbound_rule.main (expand)&#45;&gt;[root] azurerm_lb_backend_address_pool.main (expand)</title>
<path fill="none" stroke="black" d="M1104.87,-503.7C1100.15,-495.64 1094.44,-485.89 1089.22,-476.98"/>
<polygon fill="black" stroke="black" points="1092.09,-474.96 1084.02,-468.1 1086.05,-478.5 1092.09,-474.96"/>
</g>
<!-- [root] azurerm_lb_probe.main (expand) -->
<g id="node5" class="node">
<title>[root] azurerm_lb_probe.main (expand)</title>
<polygon fill="none" stroke="black" points="1432.5,-468 1247.5,-468 1247.5,-432 1432.5,-432 1432.5,-468"/>
<text text-anchor="middle" x="1340" y="-446.3" font-family="Times,serif" font-size="14.00">azurerm_lb_probe.main</text>
</g>
<!-- [root] azurerm_lb_probe.main (expand)&#45;&gt;[root] azurerm_lb.main (expand) -->
<g id="edge5" class="edge">
<title>[root] azurerm_lb_probe.main (expand)&#45;&gt;[root] azurerm_lb.main (expand)</title>
<path fill="none" stroke="black" d="M1274.78,-431.97C1236.28,-421.91 1187.38,-409.14 1147.25,-398.65"/>
<polygon fill="black" stroke="black" points="1148.07,-395.25 1137.51,-396.11 1146.3,-402.02 1148.07,-395.25"/>
</g>
<!-- [root] azurerm_lb_rule.main (expand) -->
<g id="node6" class="node">
<title>[root] azurerm_lb_rule.main (expand)</title>
<polygon fill="none" stroke="black" points="1428,-540 1256,-540 1256,-504 1428,-504 1428,-540"/>
<text text-anchor="middle" x="1342" y="-518.3" font-family="Times,serif" font-size="14.00">azurerm_lb_rule.main</text>
</g>
<!-- [root] azurerm_lb_rule.main (expand)&#45;&gt;[root] azurerm_lb_backend_address_pool.main (expand) -->
<g id="edge6" class="edge">
<title>[root] azurerm_lb_rule.main (expand)&#45;&gt;[root] azurerm_lb_backend_address_pool.main (expand)</title>
<path fill="none" stroke="black" d="M1276.78,-503.97C1238.28,-493.91 1189.38,-481.14 1149.25,-470.65"/>
<polygon fill="black" stroke="black" points="1150.07,-467.25 1139.51,-468.11 1148.3,-474.02 1150.07,-467.25"/>
</g>
<!-- [root] azurerm_lb_rule.main (expand)&#45;&gt;[root] azurerm_lb_probe.main (expand) -->
<g id="edge7" class="edge">
<title>[root] azurerm_lb_rule.main (expand)&#45;&gt;[root] azurerm_lb_probe.main (expand)</title>
<path fill="none" stroke="black" d="M1341.51,-503.7C1341.29,-495.98 1341.02,-486.71 1340.77,-478.11"/>
<polygon fill="black" stroke="black" points="1344.27,-478 1340.49,-468.1 1337.28,-478.2 1344.27,-478"/>
</g>
<!-- [root] azurerm_linux_virtual_machine.main (expand) -->
<g id="node7" class="node">
<title>[root] azurerm_linux_virtual_machine.main (expand)</title>
<polygon fill="none" stroke="black" points="1437.5,-396 1158.5,-396 1158.5,-360 1437.5,-360 1437.5,-396"/>
<text text-anchor="middle" x="1298" y="-374.3" font-family="Times,serif" font-size="14.00">azurerm_linux_virtual_machine.main</text>
</g>
<!-- [root] azurerm_linux_virtual_machine.main (expand)&#45;&gt;[root] azurerm_availability_set.main (expand) -->
<g id="edge8" class="edge">
<title>[root] azurerm_linux_virtual_machine.main (expand)&#45;&gt;[root] azurerm_availability_set.main (expand)</title>
<path fill="none" stroke="black" d="M1269.98,-359.88C1257.05,-350.7 1242.49,-338.32 1233,-324 1220.6,-305.3 1213.99,-280.57 1210.55,-261.93"/>
<polygon fill="black" stroke="black" points="1213.99,-261.3 1208.91,-252.01 1207.09,-262.45 1213.99,-261.3"/>
</g>
<!-- [root] azurerm_network_interface.main (expand) -->
<g id="node9" class="node">
<title>[root] azurerm_network_interface.main (expand)</title>
<polygon fill="none" stroke="black" points="861,-324 609,-324 609,-288 861,-288 861,-324"/>
<text text-anchor="middle" x="735" y="-302.3" font-family="Times,serif" font-size="14.00">azurerm_network_interface.main</text>
</g>
<!-- [root] azurerm_linux_virtual_machine.main (expand)&#45;&gt;[root] azurerm_network_interface.main (expand) -->
<g id="edge9" class="edge">
<title>[root] azurerm_linux_virtual_machine.main (expand)&#45;&gt;[root] azurerm_network_interface.main (expand)</title>
<path fill="none" stroke="black" d="M1160.99,-359.97C1072.93,-349.02 958.97,-334.85 871.09,-323.92"/>
<polygon fill="black" stroke="black" points="871.4,-320.43 861.04,-322.67 870.53,-327.38 871.4,-320.43"/>
</g>
<!-- [root] data.azurerm_image.main (expand) -->
<g id="node18" class="node">
<title>[root] data.azurerm_image.main (expand)</title>
<polygon fill="none" stroke="black" points="1484.5,-108 1281.5,-108 1281.5,-72 1484.5,-72 1484.5,-108"/>
<text text-anchor="middle" x="1383" y="-86.3" font-family="Times,serif" font-size="14.00">data.azurerm_image.main</text>
</g>
<!-- [root] azurerm_linux_virtual_machine.main (expand)&#45;&gt;[root] data.azurerm_image.main (expand) -->
<g id="edge10" class="edge">
<title>[root] azurerm_linux_virtual_machine.main (expand)&#45;&gt;[root] data.azurerm_image.main (expand)</title>
<path fill="none" stroke="black" d="M1329.15,-359.83C1342.2,-350.93 1356.15,-338.8 1364,-324 1399.57,-256.95 1393.31,-163.53 1387.35,-118.04"/>
<polygon fill="black" stroke="black" points="1390.81,-117.48 1385.95,-108.06 1383.88,-118.45 1390.81,-117.48"/>
</g>
<!-- [root] var.password -->
<g id="node22" class="node">
<title>[root] var.password</title>
<polygon fill="none" stroke="black" points="1178.5,-324 1073.5,-324 1073.5,-288 1184.5,-288 1184.5,-318 1178.5,-324"/>
<polyline fill="none" stroke="black" points="1178.5,-324 1178.5,-318 "/>
<polyline fill="none" stroke="black" points="1184.5,-318 1178.5,-318 "/>
<text text-anchor="middle" x="1129" y="-302.3" font-family="Times,serif" font-size="14.00">var.password</text>
</g>
<!-- [root] azurerm_linux_virtual_machine.main (expand)&#45;&gt;[root] var.password -->
<g id="edge11" class="edge">
<title>[root] azurerm_linux_virtual_machine.main (expand)&#45;&gt;[root] var.password</title>
<path fill="none" stroke="black" d="M1256.66,-359.88C1233.45,-350.26 1204.31,-338.19 1179.73,-328.01"/>
<polygon fill="black" stroke="black" points="1180.79,-324.66 1170.21,-324.07 1178.11,-331.13 1180.79,-324.66"/>
</g>
<!-- [root] var.username -->
<g id="node24" class="node">
<title>[root] var.username</title>
<polygon fill="none" stroke="black" points="1348.5,-324 1241.5,-324 1241.5,-288 1354.5,-288 1354.5,-318 1348.5,-324"/>
<polyline fill="none" stroke="black" points="1348.5,-324 1348.5,-318 "/>
<polyline fill="none" stroke="black" points="1354.5,-318 1348.5,-318 "/>
<text text-anchor="middle" x="1298" y="-302.3" font-family="Times,serif" font-size="14.00">var.username</text>
</g>
<!-- [root] azurerm_linux_virtual_machine.main (expand)&#45;&gt;[root] var.username -->
<g id="edge12" class="edge">
<title>[root] azurerm_linux_virtual_machine.main (expand)&#45;&gt;[root] var.username</title>
<path fill="none" stroke="black" d="M1298,-359.7C1298,-351.98 1298,-342.71 1298,-334.11"/>
<polygon fill="black" stroke="black" points="1301.5,-334.1 1298,-324.1 1294.5,-334.1 1301.5,-334.1"/>
</g>
<!-- [root] azurerm_managed_disk.main (expand) -->
<g id="node8" class="node">
<title>[root] azurerm_managed_disk.main (expand)</title>
<polygon fill="none" stroke="black" points="1717,-468 1493,-468 1493,-432 1717,-432 1717,-468"/>
<text text-anchor="middle" x="1605" y="-446.3" font-family="Times,serif" font-size="14.00">azurerm_managed_disk.main</text>
</g>
<!-- [root] azurerm_managed_disk.main (expand)&#45;&gt;[root] azurerm_linux_virtual_machine.main (expand) -->
<g id="edge13" class="edge">
<title>[root] azurerm_managed_disk.main (expand)&#45;&gt;[root] azurerm_linux_virtual_machine.main (expand)</title>
<path fill="none" stroke="black" d="M1530.29,-431.97C1485.73,-421.8 1429.01,-408.87 1382.78,-398.33"/>
<polygon fill="black" stroke="black" points="1383.3,-394.86 1372.78,-396.05 1381.75,-401.69 1383.3,-394.86"/>
</g>
<!-- [root] azurerm_subnet.main (expand) -->
<g id="node15" class="node">
<title>[root] azurerm_subnet.main (expand)</title>
<polygon fill="none" stroke="black" points="821,-252 649,-252 649,-216 821,-216 821,-252"/>
<text text-anchor="middle" x="735" y="-230.3" font-family="Times,serif" font-size="14.00">azurerm_subnet.main</text>
</g>
<!-- [root] azurerm_network_interface.main (expand)&#45;&gt;[root] azurerm_subnet.main (expand) -->
<g id="edge14" class="edge">
<title>[root] azurerm_network_interface.main (expand)&#45;&gt;[root] azurerm_subnet.main (expand)</title>
<path fill="none" stroke="black" d="M735,-287.7C735,-279.98 735,-270.71 735,-262.11"/>
<polygon fill="black" stroke="black" points="738.5,-262.1 735,-252.1 731.5,-262.1 738.5,-262.1"/>
</g>
<!-- [root] var.machine_count -->
<g id="node21" class="node">
<title>[root] var.machine_count</title>
<polygon fill="none" stroke="black" points="982.5,-252 839.5,-252 839.5,-216 988.5,-216 988.5,-246 982.5,-252"/>
<polyline fill="none" stroke="black" points="982.5,-252 982.5,-246 "/>
<polyline fill="none" stroke="black" points="988.5,-246 982.5,-246 "/>
<text text-anchor="middle" x="914" y="-230.3" font-family="Times,serif" font-size="14.00">var.machine_count</text>
</g>
<!-- [root] azurerm_network_interface.main (expand)&#45;&gt;[root] var.machine_count -->
<g id="edge15" class="edge">
<title>[root] azurerm_network_interface.main (expand)&#45;&gt;[root] var.machine_count</title>
<path fill="none" stroke="black" d="M778.79,-287.88C803.58,-278.18 834.78,-265.98 860.96,-255.74"/>
<polygon fill="black" stroke="black" points="862.32,-258.97 870.35,-252.07 859.77,-252.45 862.32,-258.97"/>
</g>
<!-- [root] azurerm_network_interface_backend_address_pool_association.main (expand) -->
<g id="node10" class="node">
<title>[root] azurerm_network_interface_backend_address_pool_association.main (expand)</title>
<polygon fill="none" stroke="black" points="974,-540 470,-540 470,-504 974,-504 974,-540"/>
<text text-anchor="middle" x="722" y="-518.3" font-family="Times,serif" font-size="14.00">azurerm_network_interface_backend_address_pool_association.main</text>
</g>
<!-- [root] azurerm_network_interface_backend_address_pool_association.main (expand)&#45;&gt;[root] azurerm_lb_backend_address_pool.main (expand) -->
<g id="edge16" class="edge">
<title>[root] azurerm_network_interface_backend_address_pool_association.main (expand)&#45;&gt;[root] azurerm_lb_backend_address_pool.main (expand)</title>
<path fill="none" stroke="black" d="M807.66,-503.97C859.18,-493.72 924.88,-480.66 978.13,-470.07"/>
<polygon fill="black" stroke="black" points="979.14,-473.43 988.26,-468.05 977.77,-466.57 979.14,-473.43"/>
</g>
<!-- [root] azurerm_network_interface_backend_address_pool_association.main (expand)&#45;&gt;[root] azurerm_network_interface.main (expand) -->
<g id="edge17" class="edge">
<title>[root] azurerm_network_interface_backend_address_pool_association.main (expand)&#45;&gt;[root] azurerm_network_interface.main (expand)</title>
<path fill="none" stroke="black" d="M723.04,-503.85C725.29,-466.83 730.62,-379.18 733.34,-334.39"/>
<polygon fill="black" stroke="black" points="736.84,-334.43 733.95,-324.23 729.85,-334 736.84,-334.43"/>
</g>
<!-- [root] azurerm_network_interface_security_group_association.main (expand) -->
<g id="node11" class="node">
<title>[root] azurerm_network_interface_security_group_association.main (expand)</title>
<polygon fill="none" stroke="black" points="452,-540 0,-540 0,-504 452,-504 452,-540"/>
<text text-anchor="middle" x="226" y="-518.3" font-family="Times,serif" font-size="14.00">azurerm_network_interface_security_group_association.main</text>
</g>
<!-- [root] azurerm_network_interface_security_group_association.main (expand)&#45;&gt;[root] azurerm_network_interface.main (expand) -->
<g id="edge18" class="edge">
<title>[root] azurerm_network_interface_security_group_association.main (expand)&#45;&gt;[root] azurerm_network_interface.main (expand)</title>
<path fill="none" stroke="black" d="M266.79,-503.85C359.24,-464.98 584.43,-370.3 685.03,-328.01"/>
<polygon fill="black" stroke="black" points="686.5,-331.19 694.37,-324.08 683.79,-324.73 686.5,-331.19"/>
</g>
<!-- [root] azurerm_network_security_group.security_group (expand) -->
<g id="node12" class="node">
<title>[root] azurerm_network_security_group.security_group (expand)</title>
<polygon fill="none" stroke="black" points="588,-180 222,-180 222,-144 588,-144 588,-180"/>
<text text-anchor="middle" x="405" y="-158.3" font-family="Times,serif" font-size="14.00">azurerm_network_security_group.security_group</text>
</g>
<!-- [root] azurerm_network_interface_security_group_association.main (expand)&#45;&gt;[root] azurerm_network_security_group.security_group (expand) -->
<g id="edge19" class="edge">
<title>[root] azurerm_network_interface_security_group_association.main (expand)&#45;&gt;[root] azurerm_network_security_group.security_group (expand)</title>
<path fill="none" stroke="black" d="M243.58,-503.98C267.4,-478.99 307,-429.8 307,-379 307,-379 307,-379 307,-305 307,-256.54 346.14,-212.61 374.95,-186.85"/>
<polygon fill="black" stroke="black" points="377.5,-189.27 382.76,-180.08 372.91,-183.98 377.5,-189.27"/>
</g>
<!-- [root] azurerm_network_security_group.security_group (expand)&#45;&gt;[root] azurerm_resource_group.main (expand) -->
<g id="edge20" class="edge">
<title>[root] azurerm_network_security_group.security_group (expand)&#45;&gt;[root] azurerm_resource_group.main (expand)</title>
<path fill="none" stroke="black" d="M543.71,-143.97C636.46,-132.58 757.56,-117.7 847.82,-106.62"/>
<polygon fill="black" stroke="black" points="848.34,-110.08 857.84,-105.39 847.49,-103.13 848.34,-110.08"/>
</g>
<!-- [root] azurerm_public_ip.lb_public_ip (expand)&#45;&gt;[root] azurerm_resource_group.main (expand) -->
<g id="edge21" class="edge">
<title>[root] azurerm_public_ip.lb_public_ip (expand)&#45;&gt;[root] azurerm_resource_group.main (expand)</title>
<path fill="none" stroke="black" d="M1019.42,-143.7C1012.34,-135.3 1003.72,-125.07 995.95,-115.86"/>
<polygon fill="black" stroke="black" points="998.54,-113.49 989.42,-108.1 993.19,-118.01 998.54,-113.49"/>
</g>
<!-- [root] provider[&quot;registry.terraform.io/hashicorp/azurerm&quot;] -->
<g id="node19" class="node">
<title>[root] provider[&quot;registry.terraform.io/hashicorp/azurerm&quot;]</title>
<polygon fill="none" stroke="black" points="1383,-36 1028.41,-18 1383,0 1737.59,-18 1383,-36"/>
<text text-anchor="middle" x="1383" y="-14.3" font-family="Times,serif" font-size="14.00">provider[&quot;registry.terraform.io/hashicorp/azurerm&quot;]</text>
</g>
<!-- [root] azurerm_resource_group.main (expand)&#45;&gt;[root] provider[&quot;registry.terraform.io/hashicorp/azurerm&quot;] -->
<g id="edge22" class="edge">
<title>[root] azurerm_resource_group.main (expand)&#45;&gt;[root] provider[&quot;registry.terraform.io/hashicorp/azurerm&quot;]</title>
<path fill="none" stroke="black" d="M1074.29,-71.97C1142.13,-60.33 1231.17,-45.05 1296.18,-33.9"/>
<polygon fill="black" stroke="black" points="1297.14,-37.28 1306.4,-32.14 1295.95,-30.38 1297.14,-37.28"/>
</g>
<!-- [root] var.location -->
<g id="node20" class="node">
<title>[root] var.location</title>
<polygon fill="none" stroke="black" points="1004.5,-36 911.5,-36 911.5,0 1010.5,0 1010.5,-30 1004.5,-36"/>
<polyline fill="none" stroke="black" points="1004.5,-36 1004.5,-30 "/>
<polyline fill="none" stroke="black" points="1010.5,-30 1004.5,-30 "/>
<text text-anchor="middle" x="961" y="-14.3" font-family="Times,serif" font-size="14.00">var.location</text>
</g>
<!-- [root] azurerm_resource_group.main (expand)&#45;&gt;[root] var.location -->
<g id="edge23" class="edge">
<title>[root] azurerm_resource_group.main (expand)&#45;&gt;[root] var.location</title>
<path fill="none" stroke="black" d="M971.54,-71.7C970,-63.98 968.14,-54.71 966.42,-46.11"/>
<polygon fill="black" stroke="black" points="969.81,-45.22 964.42,-36.1 962.95,-46.6 969.81,-45.22"/>
</g>
<!-- [root] azurerm_virtual_network.main (expand) -->
<g id="node17" class="node">
<title>[root] azurerm_virtual_network.main (expand)</title>
<polygon fill="none" stroke="black" points="891,-180 655,-180 655,-144 891,-144 891,-180"/>
<text text-anchor="middle" x="773" y="-158.3" font-family="Times,serif" font-size="14.00">azurerm_virtual_network.main</text>
</g>
<!-- [root] azurerm_subnet.main (expand)&#45;&gt;[root] azurerm_virtual_network.main (expand) -->
<g id="edge24" class="edge">
<title>[root] azurerm_subnet.main (expand)&#45;&gt;[root] azurerm_virtual_network.main (expand)</title>
<path fill="none" stroke="black" d="M744.39,-215.7C748.76,-207.64 754.06,-197.89 758.9,-188.98"/>
<polygon fill="black" stroke="black" points="762.02,-190.56 763.71,-180.1 755.87,-187.22 762.02,-190.56"/>
</g>
<!-- [root] azurerm_virtual_machine_data_disk_attachment.main (expand) -->
<g id="node16" class="node">
<title>[root] azurerm_virtual_machine_data_disk_attachment.main (expand)</title>
<polygon fill="none" stroke="black" points="1846,-540 1446,-540 1446,-504 1846,-504 1846,-540"/>
<text text-anchor="middle" x="1646" y="-518.3" font-family="Times,serif" font-size="14.00">azurerm_virtual_machine_data_disk_attachment.main</text>
</g>
<!-- [root] azurerm_virtual_machine_data_disk_attachment.main (expand)&#45;&gt;[root] azurerm_managed_disk.main (expand) -->
<g id="edge25" class="edge">
<title>[root] azurerm_virtual_machine_data_disk_attachment.main (expand)&#45;&gt;[root] azurerm_managed_disk.main (expand)</title>
<path fill="none" stroke="black" d="M1635.87,-503.7C1631.15,-495.64 1625.44,-485.89 1620.22,-476.98"/>
<polygon fill="black" stroke="black" points="1623.09,-474.96 1615.02,-468.1 1617.05,-478.5 1623.09,-474.96"/>
</g>
<!-- [root] azurerm_virtual_network.main (expand)&#45;&gt;[root] azurerm_resource_group.main (expand) -->
<g id="edge26" class="edge">
<title>[root] azurerm_virtual_network.main (expand)&#45;&gt;[root] azurerm_resource_group.main (expand)</title>
<path fill="none" stroke="black" d="M822.16,-143.97C850.5,-134.14 886.32,-121.73 916.16,-111.39"/>
<polygon fill="black" stroke="black" points="917.32,-114.69 925.62,-108.11 915.03,-108.08 917.32,-114.69"/>
</g>
<!-- [root] var.prefix -->
<g id="node23" class="node">
<title>[root] var.prefix</title>
<polygon fill="none" stroke="black" points="809.5,-108 730.5,-108 730.5,-72 815.5,-72 815.5,-102 809.5,-108"/>
<polyline fill="none" stroke="black" points="809.5,-108 809.5,-102 "/>
<polyline fill="none" stroke="black" points="815.5,-102 809.5,-102 "/>
<text text-anchor="middle" x="773" y="-86.3" font-family="Times,serif" font-size="14.00">var.prefix</text>
</g>
<!-- [root] azurerm_virtual_network.main (expand)&#45;&gt;[root] var.prefix -->
<g id="edge27" class="edge">
<title>[root] azurerm_virtual_network.main (expand)&#45;&gt;[root] var.prefix</title>
<path fill="none" stroke="black" d="M773,-143.7C773,-135.98 773,-126.71 773,-118.11"/>
<polygon fill="black" stroke="black" points="776.5,-118.1 773,-108.1 769.5,-118.1 776.5,-118.1"/>
</g>
<!-- [root] data.azurerm_image.main (expand)&#45;&gt;[root] provider[&quot;registry.terraform.io/hashicorp/azurerm&quot;] -->
<g id="edge28" class="edge">
<title>[root] data.azurerm_image.main (expand)&#45;&gt;[root] provider[&quot;registry.terraform.io/hashicorp/azurerm&quot;]</title>
<path fill="none" stroke="black" d="M1383,-71.7C1383,-63.98 1383,-54.71 1383,-46.11"/>
<polygon fill="black" stroke="black" points="1386.5,-46.1 1383,-36.1 1379.5,-46.1 1386.5,-46.1"/>
</g>
<!-- [root] meta.count&#45;boundary (EachMode fixup) -->
<g id="node25" class="node">
<title>[root] meta.count&#45;boundary (EachMode fixup)</title>
<ellipse fill="none" stroke="black" cx="1309" cy="-594" rx="223.66" ry="18"/>
<text text-anchor="middle" x="1309" y="-590.3" font-family="Times,serif" font-size="14.00">[root] meta.count&#45;boundary (EachMode fixup)</text>
</g>
<!-- [root] meta.count&#45;boundary (EachMode fixup)&#45;&gt;[root] azurerm_lb_outbound_rule.main (expand) -->
<g id="edge29" class="edge">
<title>[root] meta.count&#45;boundary (EachMode fixup)&#45;&gt;[root] azurerm_lb_outbound_rule.main (expand)</title>
<path fill="none" stroke="black" d="M1262.53,-576.23C1235.34,-566.42 1200.8,-553.96 1171.97,-543.56"/>
<polygon fill="black" stroke="black" points="1173.03,-540.22 1162.44,-540.12 1170.65,-546.8 1173.03,-540.22"/>
</g>
<!-- [root] meta.count&#45;boundary (EachMode fixup)&#45;&gt;[root] azurerm_lb_rule.main (expand) -->
<g id="edge30" class="edge">
<title>[root] meta.count&#45;boundary (EachMode fixup)&#45;&gt;[root] azurerm_lb_rule.main (expand)</title>
<path fill="none" stroke="black" d="M1317.16,-575.7C1320.91,-567.73 1325.45,-558.1 1329.62,-549.26"/>
<polygon fill="black" stroke="black" points="1332.84,-550.64 1333.94,-540.1 1326.51,-547.66 1332.84,-550.64"/>
</g>
<!-- [root] meta.count&#45;boundary (EachMode fixup)&#45;&gt;[root] azurerm_network_interface_backend_address_pool_association.main (expand) -->
<g id="edge31" class="edge">
<title>[root] meta.count&#45;boundary (EachMode fixup)&#45;&gt;[root] azurerm_network_interface_backend_address_pool_association.main (expand)</title>
<path fill="none" stroke="black" d="M1189.5,-578.75C1098.6,-567.91 972.84,-552.91 874.65,-541.2"/>
<polygon fill="black" stroke="black" points="874.97,-537.72 864.63,-540.01 874.14,-544.67 874.97,-537.72"/>
</g>
<!-- [root] meta.count&#45;boundary (EachMode fixup)&#45;&gt;[root] azurerm_network_interface_security_group_association.main (expand) -->
<g id="edge32" class="edge">
<title>[root] meta.count&#45;boundary (EachMode fixup)&#45;&gt;[root] azurerm_network_interface_security_group_association.main (expand)</title>
<path fill="none" stroke="black" d="M1151.41,-581.19C1126.2,-579.39 1100.38,-577.6 1076,-576 806.12,-558.26 735.92,-557.88 462.3,-540.08"/>
<polygon fill="black" stroke="black" points="462.27,-536.57 452.06,-539.41 461.81,-543.56 462.27,-536.57"/>
</g>
<!-- [root] meta.count&#45;boundary (EachMode fixup)&#45;&gt;[root] azurerm_virtual_machine_data_disk_attachment.main (expand) -->
<g id="edge33" class="edge">
<title>[root] meta.count&#45;boundary (EachMode fixup)&#45;&gt;[root] azurerm_virtual_machine_data_disk_attachment.main (expand)</title>
<path fill="none" stroke="black" d="M1385.89,-577.03C1435.9,-566.64 1501.37,-553.04 1554.11,-542.09"/>
<polygon fill="black" stroke="black" points="1555.07,-545.46 1564.14,-540 1553.64,-538.61 1555.07,-545.46"/>
</g>
<!-- [root] provider[&quot;registry.terraform.io/hashicorp/azurerm&quot;] (close) -->
<g id="node26" class="node">
<title>[root] provider[&quot;registry.terraform.io/hashicorp/azurerm&quot;] (close)</title>
<ellipse fill="none" stroke="black" cx="754" cy="-594" rx="313.04" ry="18"/>
<text text-anchor="middle" x="754" y="-590.3" font-family="Times,serif" font-size="14.00">[root] provider[&quot;registry.terraform.io/hashicorp/azurerm&quot;] (close)</text>
</g>
<!-- [root] provider[&quot;registry.terraform.io/hashicorp/azurerm&quot;] (close)&#45;&gt;[root] azurerm_lb_outbound_rule.main (expand) -->
<g id="edge34" class="edge">
<title>[root] provider[&quot;registry.terraform.io/hashicorp/azurerm&quot;] (close)&#45;&gt;[root] azurerm_lb_outbound_rule.main (expand)</title>
<path fill="none" stroke="black" d="M838.64,-576.59C892.11,-566.22 961.4,-552.78 1017.22,-541.96"/>
<polygon fill="black" stroke="black" points="1017.97,-545.38 1027.12,-540.04 1016.64,-538.51 1017.97,-545.38"/>
</g>
<!-- [root] provider[&quot;registry.terraform.io/hashicorp/azurerm&quot;] (close)&#45;&gt;[root] azurerm_lb_rule.main (expand) -->
<g id="edge35" class="edge">
<title>[root] provider[&quot;registry.terraform.io/hashicorp/azurerm&quot;] (close)&#45;&gt;[root] azurerm_lb_rule.main (expand)</title>
<path fill="none" stroke="black" d="M915.05,-578.56C1008.81,-569.45 1129.48,-556.56 1245.68,-540.14"/>
<polygon fill="black" stroke="black" points="1246.42,-543.57 1255.83,-538.69 1245.44,-536.64 1246.42,-543.57"/>
</g>
<!-- [root] provider[&quot;registry.terraform.io/hashicorp/azurerm&quot;] (close)&#45;&gt;[root] azurerm_network_interface_backend_address_pool_association.main (expand) -->
<g id="edge36" class="edge">
<title>[root] provider[&quot;registry.terraform.io/hashicorp/azurerm&quot;] (close)&#45;&gt;[root] azurerm_network_interface_backend_address_pool_association.main (expand)</title>
<path fill="none" stroke="black" d="M746.09,-575.7C742.45,-567.73 738.05,-558.1 734.01,-549.26"/>
<polygon fill="black" stroke="black" points="737.16,-547.74 729.82,-540.1 730.79,-550.65 737.16,-547.74"/>
</g>
<!-- [root] provider[&quot;registry.terraform.io/hashicorp/azurerm&quot;] (close)&#45;&gt;[root] azurerm_network_interface_security_group_association.main (expand) -->
<g id="edge37" class="edge">
<title>[root] provider[&quot;registry.terraform.io/hashicorp/azurerm&quot;] (close)&#45;&gt;[root] azurerm_network_interface_security_group_association.main (expand)</title>
<path fill="none" stroke="black" d="M635.51,-577.29C555.16,-566.64 448.66,-552.52 364.41,-541.35"/>
<polygon fill="black" stroke="black" points="364.63,-537.85 354.25,-540 363.71,-544.79 364.63,-537.85"/>
</g>
<!-- [root] provider[&quot;registry.terraform.io/hashicorp/azurerm&quot;] (close)&#45;&gt;[root] azurerm_virtual_machine_data_disk_attachment.main (expand) -->
<g id="edge38" class="edge">
<title>[root] provider[&quot;registry.terraform.io/hashicorp/azurerm&quot;] (close)&#45;&gt;[root] azurerm_virtual_machine_data_disk_attachment.main (expand)</title>
<path fill="none" stroke="black" d="M933.77,-579.23C1068.95,-568.84 1259.07,-554.13 1435.77,-540.1"/>
<polygon fill="black" stroke="black" points="1436.08,-543.58 1445.77,-539.3 1435.53,-536.6 1436.08,-543.58"/>
</g>
<!-- [root] root -->
<g id="node27" class="node">
<title>[root] root</title>
<ellipse fill="none" stroke="black" cx="1031" cy="-666" rx="58.49" ry="18"/>
<text text-anchor="middle" x="1031" y="-662.3" font-family="Times,serif" font-size="14.00">[root] root</text>
</g>
<!-- [root] root&#45;&gt;[root] meta.count&#45;boundary (EachMode fixup) -->
<g id="edge39" class="edge">
<title>[root] root&#45;&gt;[root] meta.count&#45;boundary (EachMode fixup)</title>
<path fill="none" stroke="black" d="M1074.74,-653.99C1117.46,-643.23 1183.31,-626.65 1234.32,-613.8"/>
<polygon fill="black" stroke="black" points="1235.48,-617.12 1244.32,-611.29 1233.77,-610.33 1235.48,-617.12"/>
</g>
<!-- [root] root&#45;&gt;[root] provider[&quot;registry.terraform.io/hashicorp/azurerm&quot;] (close) -->
<g id="edge40" class="edge">
<title>[root] root&#45;&gt;[root] provider[&quot;registry.terraform.io/hashicorp/azurerm&quot;] (close)</title>
<path fill="none" stroke="black" d="M987.41,-653.99C945.21,-643.32 880.34,-626.93 829.69,-614.13"/>
<polygon fill="black" stroke="black" points="830.31,-610.67 819.76,-611.62 828.6,-617.46 830.31,-610.67"/>
</g>
</g>
</svg>
